<svg xmlns="http://www.w3.org/2000/svg" width="22.031" height="22.031" viewBox="0 0 22.031 22.031">
  <g id="view" transform="translate(0 0)">
    <rect id="Rectangle_31" data-name="Rectangle 31" width="22.031" height="22.031" rx="4" transform="translate(0 0)" fill="#f2b829"/>
    <path id="eye-regular" d="M6.737,65.871a2.6,2.6,0,0,0-.731.117,1.3,1.3,0,0,1,.169.632,1.31,1.31,0,0,1-1.31,1.31,1.3,1.3,0,0,1-.632-.169,2.613,2.613,0,1,0,2.5-1.889Zm6.655,2.278A7.5,7.5,0,0,0,6.737,64,7.5,7.5,0,0,0,.082,68.15a.757.757,0,0,0,0,.683,7.5,7.5,0,0,0,6.655,4.149,7.5,7.5,0,0,0,6.655-4.15.757.757,0,0,0,0-.683Zm-6.655,3.71a6.363,6.363,0,0,1-5.565-3.368,6.362,6.362,0,0,1,5.565-3.368A6.362,6.362,0,0,1,12.3,68.491,6.362,6.362,0,0,1,6.737,71.859Z" transform="translate(4.624 -57.392)" fill="#fff"/>
  </g>
</svg>
