<svg xmlns="http://www.w3.org/2000/svg" width="21.813" height="21.813" viewBox="0 0 21.813 21.813">
  <g id="about_us" data-name="about us" transform="translate(0.1 0.1)">
    <path id="Path_895" data-name="Path 895" d="M10.806,0A10.806,10.806,0,1,0,21.613,10.806,10.819,10.819,0,0,0,10.806,0Zm0,20.558a9.752,9.752,0,1,1,9.752-9.752A9.763,9.763,0,0,1,10.806,20.558Zm1.241-17.2a.528.528,0,0,1,.149.381l-.348,10.9a.527.527,0,0,1-.527.514H10.29a.528.528,0,0,1-.527-.514L9.415,3.74A.527.527,0,0,1,9.942,3.2H11.67A.529.529,0,0,1,12.048,3.359Zm.127,13.247V18.58a.527.527,0,0,1-.527.527H9.965a.527.527,0,0,1-.527-.527V16.606a.527.527,0,0,1,.527-.527h1.683A.527.527,0,0,1,12.175,16.606Z" fill="#213a7a" stroke="#fefefe" stroke-width="0.2"/>
  </g>
</svg>
