<svg xmlns="http://www.w3.org/2000/svg" width="21.613" height="21.518" viewBox="0 0 21.613 21.518">
  <path id="contact_us" d="M13.515,20.588a5.152,5.152,0,0,1-5.026.537A12.7,12.7,0,0,1,3.035,17.21.437.437,0,0,1,3,17.169,12.7,12.7,0,0,1,.092,11.118,5.139,5.139,0,0,1,1.518,6.242l.009-.007c.317-.258.8-.195,1.315.117A5.379,5.379,0,0,1,4.107,7.475a.451.451,0,0,1,.033.039A10.166,10.166,0,0,1,5.277,9.233c.376.729.514,1.4.167,1.688a1.888,1.888,0,0,0-.231,2.647l1.754,2.09a1.887,1.887,0,0,0,2.647.231c.346-.29.979-.038,1.632.459a7.594,7.594,0,0,1,2.417,2.9,1.163,1.163,0,0,1-.095,1.3.426.426,0,0,1-.052.045Zm2.315-2.739a.43.43,0,0,0,.389.767A9.838,9.838,0,1,0,3.889,3.961c-.316.422.366.943.687.513A9.038,9.038,0,0,1,7.069,2.191a8.979,8.979,0,1,1,8.762,15.658Zm-1.361.581a.422.422,0,1,1-.422.422A.422.422,0,0,1,14.47,18.43ZM3.354,5.209a.422.422,0,1,0,.422.422A.422.422,0,0,0,3.354,5.209Zm14.313,6.958a.431.431,0,0,1-.861,0v-1.9H14.588v0a.429.429,0,0,1-.33-.7l2.622-3.146a.431.431,0,0,1,.786.244V9.407h.522a.431.431,0,1,1,0,.861h-.522ZM16.8,9.407h-1.3l1.3-1.559ZM10.572,8.355a1.263,1.263,0,1,1,2.527,0,1.017,1.017,0,0,1-.34.778A4.645,4.645,0,0,1,11.67,9.8a5.7,5.7,0,0,0-1.911,2.166.43.43,0,0,0,.382.627h3.388a.431.431,0,0,0,0-.861H10.9a3.517,3.517,0,0,1,1.154-1.161,5.286,5.286,0,0,0,1.3-.819,1.828,1.828,0,0,0,.61-1.4,2.125,2.125,0,0,0-4.25,0,.431.431,0,0,0,.861,0ZM8.762,20.31a4.325,4.325,0,0,0,4.223-.4l0,0s-.046-.14-.129-.357a6.863,6.863,0,0,0-2.131-2.521,2.177,2.177,0,0,0-.666-.4,2.424,2.424,0,0,1-1.894.543,2.732,2.732,0,0,1-1.861-.966L4.553,14.12a2.729,2.729,0,0,1-.628-2,2.572,2.572,0,0,1,.914-1.815,10.576,10.576,0,0,0-1.375-2.26A4.535,4.535,0,0,0,2.4,7.089c-.191-.115-.315-.186-.329-.188l-.017.014A4.335,4.335,0,0,0,.943,10.99a11.839,11.839,0,0,0,2.734,5.648h0A11.839,11.839,0,0,0,8.762,20.31Zm0,0" transform="translate(-0.001 0)" fill="#213a7a" fill-rule="evenodd"/>
</svg>
