<svg id="home" xmlns="http://www.w3.org/2000/svg" width="21.613" height="16.885" viewBox="0 0 21.613 16.885">
  <path id="Path_8" data-name="Path 8" d="M21.612-3.931a.422.422,0,0,0-.422-.4H.422a.422.422,0,0,0-.422.4c0,.007,0,.014,0,.022V12.13a.422.422,0,0,0,.422.422H21.19a.422.422,0,0,0,.422-.422V-3.91C21.612-3.917,21.612-3.924,21.612-3.931ZM.844-3.493H20.768v1.947H.844Zm19.924,15.2H.844V-.7H20.768Zm0,0" transform="translate(0 4.332)" fill="#213a7a"/>
  <path id="Path_9" data-name="Path 9" d="M105.049,38.563h-3.377a.422.422,0,0,1,0-.844h3.377a.422.422,0,0,1,0,.844Zm0,0" transform="translate(-97.831 -36.299)" fill="#213a7a"/>
  <path id="Path_10" data-name="Path 10" d="M51.692,38.563a.422.422,0,0,1,0-.844h0a.422.422,0,0,1,0,.844Zm0,0" transform="translate(-49.538 -36.299)" fill="#213a7a"/>
  <path id="Path_11" data-name="Path 11" d="M78.538,296.61H74.992a.422.422,0,0,1,0-.844h3.546a.422.422,0,0,1,0,.844Zm0,0" transform="translate(-72.052 -285.631)" fill="#213a7a"/>
  <path id="Path_12" data-name="Path 12" d="M78.538,346.856H74.992a.422.422,0,0,1,0-.845h3.546a.422.422,0,0,1,0,.845Zm0,0" transform="translate(-72.052 -334.18)" fill="#213a7a"/>
  <path id="Path_13" data-name="Path 13" d="M78.538,397.106H74.992a.422.422,0,0,1,0-.844h3.546a.422.422,0,0,1,0,.844Zm0,0" transform="translate(-72.052 -382.734)" fill="#213a7a"/>
  <path id="Path_14" data-name="Path 14" d="M81.6,156.713a2.027,2.027,0,1,1,2.026-2.027A2.029,2.029,0,0,1,81.6,156.713Zm0-3.209a1.182,1.182,0,1,0,1.182,1.182A1.183,1.183,0,0,0,81.6,153.5Zm0,0" transform="translate(-76.883 -147.358)" fill="#213a7a"/>
  <path id="Path_15" data-name="Path 15" d="M258.968,296.61h-3.546a.422.422,0,0,1,0-.844h3.546a.422.422,0,0,1,0,.844Zm0,0" transform="translate(-246.389 -285.631)" fill="#213a7a"/>
  <path id="Path_16" data-name="Path 16" d="M258.968,346.856h-3.546a.422.422,0,0,1,0-.845h3.546a.422.422,0,0,1,0,.845Zm0,0" transform="translate(-246.389 -334.18)" fill="#213a7a"/>
  <path id="Path_17" data-name="Path 17" d="M258.968,397.106h-3.546a.422.422,0,1,1,0-.844h3.546a.422.422,0,0,1,0,.844Zm0,0" transform="translate(-246.389 -382.734)" fill="#213a7a"/>
  <path id="Path_18" data-name="Path 18" d="M262.026,156.713a2.027,2.027,0,1,1,2.026-2.027A2.029,2.029,0,0,1,262.026,156.713Zm0-3.209a1.182,1.182,0,1,0,1.182,1.182A1.183,1.183,0,0,0,262.026,153.5Zm0,0" transform="translate(-251.22 -147.358)" fill="#213a7a"/>
  <path id="Path_19" data-name="Path 19" d="M439.507,296.61h-3.546a.422.422,0,0,1,0-.844h3.546a.422.422,0,0,1,0,.844Zm0,0" transform="translate(-420.831 -285.631)" fill="#213a7a"/>
  <path id="Path_20" data-name="Path 20" d="M439.507,346.856h-3.546a.422.422,0,0,1,0-.845h3.546a.422.422,0,0,1,0,.845Zm0,0" transform="translate(-420.831 -334.18)" fill="#213a7a"/>
  <path id="Path_21" data-name="Path 21" d="M439.507,397.106h-3.546a.422.422,0,0,1,0-.844h3.546a.422.422,0,0,1,0,.844Zm0,0" transform="translate(-420.831 -382.734)" fill="#213a7a"/>
  <path id="Path_22" data-name="Path 22" d="M442.565,156.713a2.027,2.027,0,1,1,2.026-2.027A2.029,2.029,0,0,1,442.565,156.713Zm0-3.209a1.182,1.182,0,1,0,1.182,1.182A1.183,1.183,0,0,0,442.565,153.5Zm0,0" transform="translate(-425.662 -147.358)" fill="#213a7a"/>
</svg>
