<svg xmlns="http://www.w3.org/2000/svg" width="20.149" height="20.149" viewBox="0 0 20.149 20.149">
  <g id="Recruitments" transform="translate(0)">
    <path id="Path_903" data-name="Path 903" d="M13.324,0A6.812,6.812,0,0,0,7.866,10.9L6.69,12.08l-.515-.515L.5,17.241a1.7,1.7,0,1,0,2.41,2.409l5.676-5.675-.515-.515,1.176-1.176A6.82,6.82,0,1,0,13.324,0ZM2.448,19.19A1.054,1.054,0,0,1,.958,17.7l5.216-5.216,1.49,1.49ZM7.609,13l-.46-.46,1.132-1.133q.219.241.46.46Zm5.715,0A6.175,6.175,0,1,1,19.5,6.825,6.181,6.181,0,0,1,13.324,13Zm0,0" fill="#0f204b"/>
    <path id="Path_904" data-name="Path 904" d="M249.179,67.98A1.632,1.632,0,0,0,248,69.542v1.619h6.5V69.542a1.632,1.632,0,0,0-1.179-1.563l-1.1-.313V67.58a1.627,1.627,0,0,0,.65-1.293v-.582a1.672,1.672,0,0,0-1.48-1.686,1.625,1.625,0,0,0-1.769,1.618v.65a1.626,1.626,0,0,0,.65,1.293v.086Zm1.585-.854a.965.965,0,0,1-.488-.839v-.65a.975.975,0,0,1,1.063-.971,1.018,1.018,0,0,1,.887,1.039v.582a.965.965,0,0,1-.488.839l-.161.094v.937l1.568.448a.98.98,0,0,1,.707.938v.969h-5.2v-.969a.979.979,0,0,1,.707-.938l1.568-.448V67.22Zm0,0" transform="translate(-237.926 -61.412)" fill="#0f204b"/>
    <path id="Path_905" data-name="Path 905" d="M32.65,448.325a.325.325,0,1,1-.325-.325A.325.325,0,0,1,32.65,448.325Zm0,0" transform="translate(-30.7 -429.801)" fill="#0f204b"/>
    <path id="Path_906" data-name="Path 906" d="M245.878,78.07l-.487.431a4.868,4.868,0,0,1-6.872,6.872l-.43.487a5.518,5.518,0,0,0,7.789-7.789Zm0,0" transform="translate(-228.418 -74.899)" fill="#0f204b"/>
    <path id="Path_907" data-name="Path 907" d="M194.2,34.219a4.877,4.877,0,0,1,6.669-.2l.43-.487a5.518,5.518,0,0,0-7.789,7.79l.487-.431a4.877,4.877,0,0,1,.2-6.67Zm0,0" transform="translate(-184.326 -30.841)" fill="#0f204b"/>
    <path id="Path_908" data-name="Path 908" d="M112,0h.65V.65H112Zm0,0" transform="translate(-107.451)" fill="#0f204b"/>
    <path id="Path_909" data-name="Path 909" d="M112,32h.65v.65H112Zm0,0" transform="translate(-107.451 -30.7)" fill="#0f204b"/>
    <path id="Path_910" data-name="Path 910" d="M128,16h.65v.65H128Zm0,0" transform="translate(-122.801 -15.35)" fill="#0f204b"/>
    <path id="Path_911" data-name="Path 911" d="M96,16h.65v.65H96Zm0,0" transform="translate(-92.101 -15.35)" fill="#0f204b"/>
    <path id="Path_912" data-name="Path 912" d="M16,112h.65v.65H16Zm0,0" transform="translate(-15.35 -107.45)" fill="#0f204b"/>
    <path id="Path_913" data-name="Path 913" d="M16,144h.65v.65H16Zm0,0" transform="translate(-15.35 -138.15)" fill="#0f204b"/>
    <path id="Path_914" data-name="Path 914" d="M32,128h.65v.65H32Zm0,0" transform="translate(-30.7 -122.8)" fill="#0f204b"/>
    <path id="Path_915" data-name="Path 915" d="M0,128H.65v.65H0Zm0,0" transform="translate(0 -122.8)" fill="#0f204b"/>
    <path id="Path_916" data-name="Path 916" d="M104,224h.65v.65H104Zm0,0" transform="translate(-99.776 -214.901)" fill="#0f204b"/>
    <path id="Path_917" data-name="Path 917" d="M104,256h.65v.65H104Zm0,0" transform="translate(-99.776 -245.601)" fill="#0f204b"/>
    <path id="Path_918" data-name="Path 918" d="M120,240h.65v.65H120Zm0,0" transform="translate(-115.126 -230.251)" fill="#0f204b"/>
    <path id="Path_919" data-name="Path 919" d="M88,240h.65v.65H88Zm0,0" transform="translate(-84.426 -230.251)" fill="#0f204b"/>
    <path id="Path_920" data-name="Path 920" d="M464,368h.65v.65H464Zm0,0" transform="translate(-445.151 -353.051)" fill="#0f204b"/>
    <path id="Path_921" data-name="Path 921" d="M464,400h.65v.65H464Zm0,0" transform="translate(-445.151 -383.751)" fill="#0f204b"/>
    <path id="Path_922" data-name="Path 922" d="M480,384h.65v.65H480Zm0,0" transform="translate(-460.502 -368.401)" fill="#0f204b"/>
    <path id="Path_923" data-name="Path 923" d="M448,384h.65v.65H448Zm0,0" transform="translate(-429.801 -368.401)" fill="#0f204b"/>
    <path id="Path_924" data-name="Path 924" d="M320,448h.65v.65H320Zm0,0" transform="translate(-307.001 -429.801)" fill="#0f204b"/>
    <path id="Path_925" data-name="Path 925" d="M320,480h.65v.65H320Zm0,0" transform="translate(-307.001 -460.501)" fill="#0f204b"/>
    <path id="Path_926" data-name="Path 926" d="M336,464h.65v.65H336Zm0,0" transform="translate(-322.351 -445.151)" fill="#0f204b"/>
    <path id="Path_927" data-name="Path 927" d="M304,464h.65v.65H304Zm0,0" transform="translate(-291.651 -445.151)" fill="#0f204b"/>
    <path id="Path_928" data-name="Path 928" d="M240,344h.65v.65H240Zm0,0" transform="translate(-230.251 -330.026)" fill="#0f204b"/>
    <path id="Path_929" data-name="Path 929" d="M240,376h.65v.65H240Zm0,0" transform="translate(-230.251 -360.726)" fill="#0f204b"/>
    <path id="Path_930" data-name="Path 930" d="M256,360h.65v.65H256Zm0,0" transform="translate(-245.601 -345.376)" fill="#0f204b"/>
    <path id="Path_931" data-name="Path 931" d="M224,360h.65v.65H224Zm0,0" transform="translate(-214.901 -345.376)" fill="#0f204b"/>
  </g>
</svg>
