<svg xmlns="http://www.w3.org/2000/svg" width="22.052" height="21.945" viewBox="0 0 22.052 21.945">
  <g id="services_page" data-name="services page" transform="translate(0.184 0.15)">
    <g id="Group_43" data-name="Group 43" transform="translate(0 9.96)">
      <g id="Group_42" data-name="Group 42">
        <path id="Path_901" data-name="Path 901" d="M20.937,236.661a1.9,1.9,0,0,0-2.614.158l-1.861,2a1.9,1.9,0,0,0-1.814-1.336H11.326c-.252,0-.336-.1-.774-.433a4.441,4.441,0,0,0-5.84.014l-1.221,1.075a1.892,1.892,0,0,0-1.741-.022l-1.4.7a.634.634,0,0,0-.283.85l3.8,7.6a.634.634,0,0,0,.85.283l1.4-.7a1.9,1.9,0,0,0,1.049-1.766h7.482a4.453,4.453,0,0,0,3.546-1.773l3.04-4.053A1.894,1.894,0,0,0,20.937,236.661Zm-15.388,9.05-.834.417-3.233-6.465.834-.417a.633.633,0,0,1,.849.283l2.666,5.333A.633.633,0,0,1,5.549,245.711Zm14.67-7.219-3.04,4.053a3.18,3.18,0,0,1-2.533,1.266H6.723L4.35,239.066l1.2-1.055a3.174,3.174,0,0,1,4.183,0,2.241,2.241,0,0,0,1.594.735h3.321a.633.633,0,1,1,0,1.266H11.413a.633.633,0,0,0,0,1.266h3.658a1.9,1.9,0,0,0,1.39-.6l2.788-2.992a.633.633,0,0,1,.97.81Z" transform="translate(0 -235.959)" fill="#213a7a" stroke="#fefefe" stroke-width="0.3"/>
      </g>
    </g>
    <g id="Group_45" data-name="Group 45" transform="translate(7.64 0)">
      <g id="Group_44" data-name="Group 44">
        <path id="Path_902" data-name="Path 902" d="M186.667,4.334a2.522,2.522,0,0,0,.7-1.746A2.567,2.567,0,0,0,184.835.013a2.609,2.609,0,0,0-2.575,2.575,2.486,2.486,0,0,0,.724,1.751,3.863,3.863,0,0,0-1.99,3.357v.633a.633.633,0,0,0,.633.633H188a.633.633,0,0,0,.633-.633V7.7A3.859,3.859,0,0,0,186.667,4.334Zm-1.832-3.054A1.305,1.305,0,0,1,186.1,2.588a1.268,1.268,0,0,1-1.266,1.266,1.305,1.305,0,0,1-1.308-1.266A1.343,1.343,0,0,1,184.835,1.279ZM182.26,7.7a2.609,2.609,0,0,1,2.575-2.575A2.557,2.557,0,0,1,187.368,7.7Z" transform="translate(-180.994 -0.013)" fill="#213a7a" stroke="#fefefe" stroke-width="0.3"/>
      </g>
    </g>
  </g>
</svg>
