<svg xmlns="http://www.w3.org/2000/svg" width="19.809" height="19.809" viewBox="0 0 19.809 19.809">
  <g id="training" transform="translate(0 0)">
    <path id="Path_1009" data-name="Path 1009" d="M48,224.254a.33.33,0,0,0,.33.33h5.943a.33.33,0,0,0,.33-.33V222.61a1.658,1.658,0,0,0-1.2-1.589l-1.114-.318v-.419a1.643,1.643,0,0,0,.66-1.312v-.33a.33.33,0,0,0,.33-.33v-.33a1.981,1.981,0,1,0-3.962,0v.33a.33.33,0,0,0,.33.33v.33a1.643,1.643,0,0,0,.66,1.312v.419l-1.114.318A1.658,1.658,0,0,0,48,222.61Zm3.3-7.594a1.321,1.321,0,0,1,1.321,1.312.33.33,0,0,1-.218-.174l-.147-.294a.33.33,0,0,0-.479-.128l-.491.328a1.646,1.646,0,0,1-.916.277h-.391A1.321,1.321,0,0,1,51.3,216.66Zm-.93,1.981a2.3,2.3,0,0,0,1.282-.388l.181-.121a.975.975,0,0,0,.458.413v.426a.99.99,0,0,1-1.981,0v-.33Zm.93,1.981a1.645,1.645,0,0,0,.33-.033v.363a.327.327,0,0,0,.114.244l-.444.333-.444-.333a.327.327,0,0,0,.114-.244v-.363A1.645,1.645,0,0,0,51.3,220.622ZM48.66,222.61a1,1,0,0,1,.718-.954l.718-.2,1.007.756a.33.33,0,0,0,.4,0l1.007-.756.719.2a1,1,0,0,1,.718.954v1.314h-.66V222.6h-.66v1.321H49.981V222.6h-.66v1.321h-.66Zm0,0" transform="translate(-46.019 -207.086)" fill="#0f204b"/>
    <path id="Path_1010" data-name="Path 1010" d="M247.594,237.943a.991.991,0,0,0,.99-.99V232.99a.99.99,0,0,0-.99-.99h-6.6a.99.99,0,0,0-.99.99v3.962a.991.991,0,0,0,.99.99H243.3v1.321h-.66v.66h3.3v-.66h-.66v-1.321Zm-6.6-.66a.33.33,0,0,1-.33-.33V232.99a.33.33,0,0,1,.33-.33h6.6a.33.33,0,0,1,.33.33v3.962a.33.33,0,0,1-.33.33h-2.311v-1.651a.33.33,0,0,0-.33-.33h-1.321a.33.33,0,0,0-.33.33v1.651Zm2.971,1.981v-3.3h.66v3.3Zm0,0" transform="translate(-230.095 -222.426)" fill="#0f204b"/>
    <path id="Path_1011" data-name="Path 1011" d="M136.991,6.6h1.981V8.254a.33.33,0,0,0,.564.233L141.42,6.6h4.155a.991.991,0,0,0,.99-.99V.99a.991.991,0,0,0-.99-.99h-8.584a.99.99,0,0,0-.99.99V5.613a.99.99,0,0,0,.99.99ZM136.661.99a.33.33,0,0,1,.33-.33h8.584a.33.33,0,0,1,.33.33V5.613a.33.33,0,0,1-.33.33h-4.292a.33.33,0,0,0-.233.1l-1.417,1.417V6.273a.33.33,0,0,0-.33-.33h-2.311a.33.33,0,0,1-.33-.33Zm0,0" transform="translate(-130.388)" fill="#0f204b"/>
    <path id="Path_1012" data-name="Path 1012" d="M19.809,432H0v.66H.66v.99a.33.33,0,0,0,.33.33H18.819a.33.33,0,0,0,.33-.33v-.99h.66Zm-1.321,1.321H1.321v-.66H18.489Zm0,0" transform="translate(0 -414.172)" fill="#0f204b"/>
    <path id="Path_1013" data-name="Path 1013" d="M192,40h5.943v.66H192Zm0,0" transform="translate(-184.076 -38.349)" fill="#0f204b"/>
    <path id="Path_1014" data-name="Path 1014" d="M192,72h5.943v.66H192Zm0,0" transform="translate(-184.076 -69.029)" fill="#0f204b"/>
    <path id="Path_1015" data-name="Path 1015" d="M192,104h5.943v.66H192Zm0,0" transform="translate(-184.076 -99.708)" fill="#0f204b"/>
    <path id="Path_1016" data-name="Path 1016" d="M.33,72.584H1.981v-.66H.66V64.66H2.311V64H.33a.33.33,0,0,0-.33.33v7.924A.33.33,0,0,0,.33,72.584Zm0,0" transform="translate(0 -61.359)" fill="#0f204b"/>
    <path id="Path_1017" data-name="Path 1017" d="M72,64h.66v.66H72Zm0,0" transform="translate(-69.029 -61.359)" fill="#0f204b"/>
    <path id="Path_1018" data-name="Path 1018" d="M104,64h.66v.66H104Zm0,0" transform="translate(-99.708 -61.359)" fill="#0f204b"/>
    <path id="Path_1019" data-name="Path 1019" d="M408.99,67.632h.66v-3.3a.33.33,0,0,0-.33-.33H408v.66h.99Zm0,0" transform="translate(-391.162 -61.359)" fill="#0f204b"/>
    <path id="Path_1020" data-name="Path 1020" d="M432,168h.66v.66H432Zm0,0" transform="translate(-414.172 -161.067)" fill="#0f204b"/>
    <path id="Path_1021" data-name="Path 1021" d="M432,200h.66v.66H432Zm0,0" transform="translate(-414.172 -191.746)" fill="#0f204b"/>
  </g>
</svg>
