<svg xmlns="http://www.w3.org/2000/svg" width="22.413" height="18.988" viewBox="0 0 22.413 18.988">
  <path id="users" d="M13.042,9.47a3.927,3.927,0,0,1,1.828,2.918A3.168,3.168,0,1,0,13.042,9.47Zm-2.077,6.49A3.17,3.17,0,1,0,7.8,12.79,3.17,3.17,0,0,0,10.966,15.96Zm1.345.216H9.621a4.063,4.063,0,0,0-4.058,4.059v3.289l.008.052.227.071a18.474,18.474,0,0,0,5.518.89,11.329,11.329,0,0,0,4.818-.9l.212-.107h.023v-3.29A4.062,4.062,0,0,0,12.31,16.176ZM17.555,12.9H14.886a3.906,3.906,0,0,1-1.206,2.721,4.823,4.823,0,0,1,3.445,4.615v1.014a10.922,10.922,0,0,0,4.254-.894l.212-.107h.023v-3.29A4.063,4.063,0,0,0,17.555,12.9ZM5.4,12.688A3.149,3.149,0,0,0,7.09,12.2,3.923,3.923,0,0,1,8.564,9.7c0-.059.009-.118.009-.178A3.169,3.169,0,1,0,5.4,12.688ZM8.25,15.625a3.909,3.909,0,0,1-1.2-2.706c-.1-.007-.2-.015-.3-.015H4.058A4.063,4.063,0,0,0,0,16.962v3.29l.008.051.227.071a19.029,19.029,0,0,0,4.57.859v-.993A4.823,4.823,0,0,1,8.25,15.625Z" transform="translate(0.4 -5.948)" fill="none" stroke="#213a7a" stroke-width="0.8"/>
</svg>
