<svg xmlns="http://www.w3.org/2000/svg" width="21.613" height="22.632" viewBox="0 0 21.613 22.632">
  <g id="vacancies" transform="translate(0 0)">
    <path id="Path_1004" data-name="Path 1004" d="M0,20.626a2.071,2.071,0,0,0,2.118,2.006H14.552a2.079,2.079,0,0,0,2.073-1.67,2.04,2.04,0,0,0,1.763-1.98V9.947H19.4a.362.362,0,0,0,.2-.055l1.849-1.2a.364.364,0,0,0,0-.61L19.6,6.868a.375.375,0,0,0-.2-.069H18.388V4.807a.452.452,0,0,0-.162-.314L14.018.206a.366.366,0,0,0-.086-.087L13.921.108A.364.364,0,0,0,13.66,0H3.851a2.088,2.088,0,0,0-2.08,1.67A2.047,2.047,0,0,0,0,3.65ZM6.206,9.217V7.529H19.027V9.217Zm13.552-.3V7.857l.814.53ZM14.1,1.315l3.027,3.111H14.587a.477.477,0,0,1-.488-.468ZM3.851.73h9.518V3.958a1.208,1.208,0,0,0,1.218,1.2h3.071V6.8H5.859a.4.4,0,0,0-.383.386v.047L4.389,7.209h0a.375.375,0,0,0-.365.376l.011,1.589a.365.365,0,0,0,.365.362H5.475V9.59a.374.374,0,0,0,.383.357H6.63l0,.548a.8.8,0,0,0,.218.563.676.676,0,0,0,.473.213h4.432a.365.365,0,0,0,0-.73H7.356c0-.046,0-.023,0-.028l.005-.565h10.3v9.035a1.329,1.329,0,0,1-1.373,1.277H3.851a1.342,1.342,0,0,1-1.387-1.277V2.063c0-.019.012-.037.012-.057a.348.348,0,0,0,0-.047A1.336,1.336,0,0,1,3.851.73ZM5.475,8.806H4.76l-.016-.854.731.009ZM.73,3.65a1.334,1.334,0,0,1,1-1.23V18.982a2.072,2.072,0,0,0,2.117,2.007H15.868a1.339,1.339,0,0,1-1.316.913H2.118A1.342,1.342,0,0,1,.73,20.626Zm0,0" transform="translate(0 0)" fill="#213a7a"/>
    <path id="Path_1005" data-name="Path 1005" d="M88.826,268.73h6a.365.365,0,1,0,0-.73h-6a.365.365,0,0,0,0,.73Zm0,0" transform="translate(-84.425 -255.771)" fill="#213a7a"/>
    <path id="Path_1006" data-name="Path 1006" d="M88.826,307.73H99.271a.365.365,0,0,0,0-.73H88.826a.365.365,0,0,0,0,.73Zm0,0" transform="translate(-84.425 -292.992)" fill="#213a7a"/>
    <path id="Path_1007" data-name="Path 1007" d="M88.826,346.73H99.271a.365.365,0,0,0,0-.73H88.826a.365.365,0,0,0,0,.73Zm0,0" transform="translate(-84.425 -330.212)" fill="#213a7a"/>
    <path id="Path_1008" data-name="Path 1008" d="M88.826,385.73H99.271a.365.365,0,0,0,0-.73H88.826a.365.365,0,0,0,0,.73Zm0,0" transform="translate(-84.425 -367.433)" fill="#213a7a"/>
  </g>
</svg>
