<svg xmlns="http://www.w3.org/2000/svg" width="22.031" height="22.031" viewBox="0 0 22.031 22.031">
  <g id="delete" transform="translate(0 0)">
    <rect id="Rectangle_32" data-name="Rectangle 32" width="22.031" height="22.031" rx="4" transform="translate(0 0)" fill="#e01c37"/>
    <g id="delete-2" data-name="delete" transform="translate(5.634 3.737)">
      <path id="Path_809" data-name="Path 809" d="M222.726,154.7a.328.328,0,0,0-.328.328v6.2a.328.328,0,1,0,.656,0v-6.2A.328.328,0,0,0,222.726,154.7Zm0,0" transform="translate(-215.105 -149.63)" fill="#fff"/>
      <path id="Path_810" data-name="Path 810" d="M104.726,154.7a.328.328,0,0,0-.328.328v6.2a.328.328,0,1,0,.656,0v-6.2A.328.328,0,0,0,104.726,154.7Zm0,0" transform="translate(-100.974 -149.63)" fill="#fff"/>
      <path id="Path_811" data-name="Path 811" d="M.928,4.167v8.079a1.809,1.809,0,0,0,.481,1.248A1.615,1.615,0,0,0,2.581,14h6.2a1.614,1.614,0,0,0,1.172-.507,1.809,1.809,0,0,0,.481-1.248V4.167A1.253,1.253,0,0,0,10.116,1.7H8.437v-.41A1.288,1.288,0,0,0,7.139,0H4.227a1.288,1.288,0,0,0-1.3,1.3V1.7H1.249A1.253,1.253,0,0,0,.928,4.167Zm7.857,9.178h-6.2a1.039,1.039,0,0,1-1-1.1V4.2h8.2v8.05a1.039,1.039,0,0,1-1,1.1ZM3.584,1.294A.632.632,0,0,1,4.227.654H7.139a.632.632,0,0,1,.643.639V1.7h-4.2ZM1.249,2.36h8.867a.59.59,0,1,1,0,1.181H1.249a.59.59,0,1,1,0-1.181Zm0,0" transform="translate(0.003 0.002)" fill="#fff"/>
      <path id="Path_812" data-name="Path 812" d="M163.726,154.7a.328.328,0,0,0-.328.328v6.2a.328.328,0,1,0,.656,0v-6.2A.328.328,0,0,0,163.726,154.7Zm0,0" transform="translate(-158.04 -149.63)" fill="#fff"/>
    </g>
  </g>
</svg>
