<svg xmlns="http://www.w3.org/2000/svg" width="131.236" height="85.449" viewBox="0 0 131.236 85.449">
  <g id="logo_letters" transform="translate(0 0)">
    <path id="Path_885" data-name="Path 885" d="M169.913,167.8h-3.279v11.074h-2.566V167.8H160.81V165.59h9.1Z" transform="translate(-70.375 -93.648)" fill="#213a7a"/>
    <path id="Path_886" data-name="Path 886" d="M183.242,178.838H175.88V165.68h7.082V167.8h-4.551v3.188H182.7v2.069h-4.293v3.663h4.831Z" transform="translate(-74.909 -93.675)" fill="#213a7a"/>
    <path id="Path_887" data-name="Path 887" d="M199.143,178.466a6.685,6.685,0,0,1-2.839.482,5.677,5.677,0,0,1-4.447-1.783,6.691,6.691,0,0,1-1.552-4.649,6.775,6.775,0,0,1,1.867-5.062,6.041,6.041,0,0,1,4.426-1.7,5.663,5.663,0,0,1,2.664.489l-.489,1.993a5.14,5.14,0,0,0-2.055-.412,3.5,3.5,0,0,0-2.706,1.119,5.859,5.859,0,0,0-.084,6.768,3.5,3.5,0,0,0,2.8,1.14,5.335,5.335,0,0,0,2.1-.357Z" transform="translate(-79.246 -93.695)" fill="#213a7a"/>
    <path id="Path_888" data-name="Path 888" d="M215.042,178.9H212.49V173.21h-4.5V178.9H205.45V165.68h2.538v5.279h4.5V165.68h2.552Z" transform="translate(-83.806 -93.675)" fill="#213a7a"/>
    <path id="Path_889" data-name="Path 889" d="M179.983,104.9c0-8.508-3.286-18.178-8.39-24.554-5.628-7.082-10.312-10.655-17.891-13.654l-2.342-.923.2,83.3h3.419l-.189-78.205c5.635,2.573,9.536,5.824,14.137,11.606a38.306,38.306,0,0,1,7.586,20.729l-16.556.112,10.186,14.535a3.943,3.943,0,0,0-.336,1.608,4.23,4.23,0,1,0,4.23-4.1,4.3,4.3,0,0,0-1.329.21l-6.222-8.872,13.486-.091Zm-5.943,12.158a2.4,2.4,0,1,1-2.524,2.391,2.461,2.461,0,0,1,2.524-2.391" transform="translate(-67.532 -63.616)" fill="#213a7a"/>
    <path id="Path_890" data-name="Path 890" d="M130,120.634a4.237,4.237,0,1,0,4.23-4.1,4.237,4.237,0,0,0-4.23,4.1m4.23-2.391a2.4,2.4,0,1,1-2.524,2.391,2.461,2.461,0,0,1,2.524-2.391" transform="translate(-61.105 -78.888)" fill="#213a7a"/>
    <path id="Path_891" data-name="Path 891" d="M83.589,131.317a35.719,35.719,0,0,0,26.567,13.906v-.231a4.2,4.2,0,0,0,4.02,2.8,4.1,4.1,0,1,0,0-8.2,4.251,4.251,0,0,0-3.824,2.356v-.161C89.1,140.427,77.989,122,77.989,104.505a37.886,37.886,0,0,1,11.361-27.2,39.473,39.473,0,0,1,28.6-11.186L118,62.7A42.892,42.892,0,0,0,86.952,74.869,41.249,41.249,0,0,0,74.57,104.5a44.276,44.276,0,0,0,8.963,26.784m30.629,10a2.4,2.4,0,1,1-2.524,2.4,2.468,2.468,0,0,1,2.524-2.4" transform="translate(-44.429 -62.69)" fill="#213a7a"/>
    <path id="Path_892" data-name="Path 892" d="M71.73,148.608c-.357-.315-.7-.643-1.147-.979C57.509,137.212,50.308,122.5,50.308,106.205A52.1,52.1,0,0,1,66.249,68.2l-2.391-2.44h-.35c-8.648.7-16.6,5.544-23.645,14.409-5,6.292-8.39,16.479-8.39,25.344h0a72.6,72.6,0,0,0,9.473,36.446,4,4,0,0,0-.888,2.5,4.237,4.237,0,1,0,4.23-4.1h-.315c-8.18-13.822-9.04-28.665-9.089-33.489H46.9a55.337,55.337,0,0,0,20.044,42.144h5.3l-.524-.454m-27.4-6.425a2.4,2.4,0,1,1-2.524,2.391,2.461,2.461,0,0,1,2.524-2.391M34.99,103.5c.468-7.558,3.433-16,7.544-21.17,5.383-6.775,11.277-10.963,17.555-12.515a55.092,55.092,0,0,0-13.137,33.691Z" transform="translate(-31.458 -63.613)" fill="#213a7a"/>
    <path id="Path_893" data-name="Path 893" d="M122.72,132.67h-.294a18.567,18.567,0,0,1-1.881-.252l-.2-.035a20.394,20.394,0,0,1-.587-39.956h.091a36.585,36.585,0,0,1,5.677-.587h.259v-3.3h-1.7a23.792,23.792,0,1,0,.056,47.583h1.7v-3.174h-.252c-.909-.07-1.874-.161-2.852-.266" transform="translate(-52.176 -70.467)" fill="#213a7a"/>
    <path id="Path_894" data-name="Path 894" d="M130.06,127.175l-1.5-.14-.769-.042-.28-.049h-.154a10.158,10.158,0,0,1-.294-19.9h.1a18.872,18.872,0,0,1,2.832-.28h.776v-3.02h-1.566a13.284,13.284,0,0,0,0,26.567h1.566V127.35Z" transform="translate(-56.873 -75.04)" fill="#213a7a"/>
  </g>
</svg>
