<svg id="Layer_1" data-name="Layer 1" xmlns="http://www.w3.org/2000/svg" xmlns:xlink="http://www.w3.org/1999/xlink" width="164.713" height="164.713" viewBox="0 0 164.713 164.713">
  <defs>
    <radialGradient id="radial-gradient" cx="0.5" cy="0.5" r="0.5" gradientUnits="objectBoundingBox">
      <stop offset="0" stop-color="#213a7a"/>
      <stop offset="0.76" stop-color="#233c7c"/>
      <stop offset="0.92" stop-color="#263f7f"/>
      <stop offset="0.94" stop-color="#294484" stop-opacity="0.949"/>
      <stop offset="0.95" stop-color="#315293" stop-opacity="0.78"/>
      <stop offset="0.97" stop-color="#3f69ad" stop-opacity="0.51"/>
      <stop offset="0.97" stop-color="#406aae" stop-opacity="0.502"/>
      <stop offset="0.98" stop-color="#446db0" stop-opacity="0.49"/>
      <stop offset="0.99" stop-color="#5278b5" stop-opacity="0.451"/>
      <stop offset="0.99" stop-color="#6b8bbf" stop-opacity="0.38"/>
      <stop offset="0.99" stop-color="#8ea6cd" stop-opacity="0.29"/>
      <stop offset="1" stop-color="#bcc9df" stop-opacity="0.161"/>
      <stop offset="1" stop-color="#f3f4f5" stop-opacity="0.012"/>
      <stop offset="1" stop-color="#f6f6f6" stop-opacity="0"/>
    </radialGradient>
  </defs>
  <circle id="Ellipse_111" data-name="Ellipse 111" cx="82.356" cy="82.356" r="82.356" fill="url(#radial-gradient)"/>
  <g id="aldr_tech" data-name="aldr tech">
    <path id="Path_885" data-name="Path 885" d="M169.365,167.666h-3.082v10.408h-2.411V167.666H160.81V165.59h8.555Z" transform="translate(-55.148 -56.787)" fill="#fff"/>
    <path id="Path_886" data-name="Path 886" d="M182.8,178.046H175.88V165.68h6.656v1.991h-4.277v3h4.034v1.945h-4.034v3.443h4.54Z" transform="translate(-60.316 -56.818)" fill="#fff"/>
    <path id="Path_887" data-name="Path 887" d="M198.61,177.7a6.282,6.282,0,0,1-2.668.453,5.335,5.335,0,0,1-4.179-1.675,6.288,6.288,0,0,1-1.459-4.369,6.367,6.367,0,0,1,1.754-4.757,5.677,5.677,0,0,1,4.159-1.6,5.322,5.322,0,0,1,2.5.46l-.46,1.873a4.83,4.83,0,0,0-1.932-.388,3.285,3.285,0,0,0-2.543,1.051,5.506,5.506,0,0,0-.079,6.36,3.285,3.285,0,0,0,2.628,1.071,5.013,5.013,0,0,0,1.971-.335Z" transform="translate(-65.259 -56.84)" fill="#fff"/>
    <path id="Path_888" data-name="Path 888" d="M214.465,178.105h-2.4v-5.349h-4.231v5.349H205.45V165.68h2.385v4.961h4.231V165.68h2.4Z" transform="translate(-70.456 -56.818)" fill="#fff"/>
    <path id="Path_889" data-name="Path 889" d="M178.26,102.546a39.185,39.185,0,0,0-7.885-23.076c-5.289-6.656-9.692-10.014-16.814-12.832l-2.2-.867.191,78.283h3.213l-.177-73.5c5.3,2.418,8.962,5.473,13.286,10.907A36,36,0,0,1,175,100.943l-15.559.105,9.573,13.66a3.706,3.706,0,0,0-.315,1.511,3.975,3.975,0,1,0,3.975-3.857,4.048,4.048,0,0,0-1.249.2l-5.847-8.338,12.675-.085Zm-5.585,11.426a2.254,2.254,0,1,1-2.372,2.247,2.313,2.313,0,0,1,2.372-2.247" transform="translate(-51.907 -22.555)" fill="#fff"/>
    <path id="Path_890" data-name="Path 890" d="M130,120.387a3.982,3.982,0,1,0,3.975-3.857A3.982,3.982,0,0,0,130,120.387m3.975-2.247a2.254,2.254,0,1,1-2.372,2.247,2.313,2.313,0,0,1,2.372-2.247" transform="translate(-44.581 -39.962)" fill="#fff"/>
    <path id="Path_891" data-name="Path 891" d="M83.046,127.187a33.569,33.569,0,0,0,24.968,13.069v-.217a3.942,3.942,0,0,0,3.778,2.628,3.857,3.857,0,1,0,0-7.707,4,4,0,0,0-3.594,2.214v-.151c-19.968-1.275-30.415-18.588-30.415-35.035A35.606,35.606,0,0,1,88.46,76.429a37.1,37.1,0,0,1,26.88-10.513l.046-3.213a40.311,40.311,0,0,0-29.18,11.433A38.767,38.767,0,0,0,74.57,101.982a41.612,41.612,0,0,0,8.424,25.172m28.786,9.4a2.254,2.254,0,1,1-2.372,2.254,2.319,2.319,0,0,1,2.372-2.254" transform="translate(-25.573 -21.499)" fill="#fff"/>
    <path id="Path_892" data-name="Path 892" d="M69.306,143.622c-.335-.3-.657-.6-1.078-.92-12.287-9.79-19.055-23.615-19.055-38.931A48.964,48.964,0,0,1,64.155,68.053L61.908,65.76h-.329c-8.128.657-15.605,5.211-22.222,13.542-4.7,5.914-7.885,15.487-7.885,23.819h0a68.234,68.234,0,0,0,8.9,34.253,3.758,3.758,0,0,0-.834,2.352,3.982,3.982,0,1,0,3.975-3.857h-.3c-7.688-12.99-8.5-26.94-8.542-31.473H45.974A52.007,52.007,0,0,0,64.812,144h4.981l-.493-.427m-25.75-6.038a2.254,2.254,0,1,1-2.372,2.247,2.313,2.313,0,0,1,2.372-2.247m-8.772-36.309c.44-7.1,3.226-15.04,7.09-19.9,5.059-6.367,10.6-10.3,16.5-11.761A51.777,51.777,0,0,0,46.02,101.235Z" transform="translate(-10.788 -22.551)" fill="#fff"/>
    <path id="Path_893" data-name="Path 893" d="M121.372,130.014H121.1a17.446,17.446,0,0,1-1.768-.237l-.191-.033a19.167,19.167,0,0,1-.552-37.551h.085a34.385,34.385,0,0,1,5.335-.552h.243v-3.1h-1.6a22.36,22.36,0,0,0,.053,44.72h1.6v-2.983h-.237c-.854-.066-1.761-.151-2.681-.25" transform="translate(-34.403 -30.364)" fill="#fff"/>
    <path id="Path_894" data-name="Path 894" d="M129.209,125.765l-1.406-.131-.723-.039-.263-.046h-.145a9.547,9.547,0,0,1-.276-18.707h.1a17.741,17.741,0,0,1,2.661-.263h.729V103.74h-1.472a12.484,12.484,0,1,0,0,24.968h1.472v-2.779Z" transform="translate(-39.757 -35.576)" fill="#fff"/>
  </g>
</svg>
