<svg xmlns="http://www.w3.org/2000/svg" width="22.705" height="18.972" viewBox="0 0 22.705 18.972">
  <g id="sliders" transform="translate(0.289 0.25)">
    <path id="Path_995" data-name="Path 995" d="M183.367,161.339H172.746a2.081,2.081,0,0,1-2.078-2.078v-.231a.693.693,0,0,1,1.385,0v.231a.694.694,0,0,0,.693.693h10.621a.694.694,0,0,0,.693-.693V151.41a.694.694,0,0,0-.693-.693h-.231a.693.693,0,1,1,0-1.385h.231a2.081,2.081,0,0,1,2.078,2.078v7.851A2.081,2.081,0,0,1,183.367,161.339Zm0,0" transform="translate(-163.279 -142.867)" fill="#0f204b" stroke="#fff" stroke-width="0.5"/>
    <path id="Path_996" data-name="Path 996" d="M16.443,13.854H2.029A2.031,2.031,0,0,1,0,11.825v-9.8A2.031,2.031,0,0,1,2.029,0H16.442a2.032,2.032,0,0,1,2.03,2.029v9.795a2.032,2.032,0,0,1-2.029,2.03ZM2.029,1.385a.644.644,0,0,0-.644.644v9.795a.644.644,0,0,0,.644.644H16.442a.644.644,0,0,0,.644-.644V2.029a.644.644,0,0,0-.644-.644Zm0,0" fill="#0f204b" stroke="#fff" stroke-width="0.5"/>
    <path id="Path_997" data-name="Path 997" d="M65.847,46.362a1.847,1.847,0,1,1,1.847-1.847A1.849,1.849,0,0,1,65.847,46.362Zm0-2.309a.462.462,0,1,0,.462.462A.462.462,0,0,0,65.847,44.053Zm0,0" transform="translate(-61.229 -40.821)" fill="#0f204b" stroke="#fff" stroke-width="0.5"/>
    <path id="Path_998" data-name="Path 998" d="M1.126,100.611a.693.693,0,0,1-.489-1.183l4.175-4.175a1.621,1.621,0,0,1,2.291,0l1.118,1.117,3.43-4.118a1.613,1.613,0,0,1,1.234-.583h.008a1.611,1.611,0,0,1,1.23.569l4.6,5.363a.693.693,0,1,1-1.052.9l-4.6-5.366c-.062-.073-.109-.067-.177-.083a.226.226,0,0,0-.176.084L8.8,97.84a.7.7,0,0,1-.5.249.64.64,0,0,1-.521-.2L6.123,96.233a.238.238,0,0,0-.332,0l-4.175,4.175a.69.69,0,0,1-.49.2Zm0,0" transform="translate(-0.415 -87.699)" fill="#0f204b" stroke="#fff" stroke-width="0.5"/>
  </g>
</svg>
