<svg xmlns="http://www.w3.org/2000/svg" xmlns:xlink="http://www.w3.org/1999/xlink" width="656.433" height="386.22" viewBox="0 0 656.433 386.22">
  <defs>
    <clipPath id="clip-path">
      <path id="Path_938" data-name="Path 938" d="M370.76,64.49a37.41,37.41,0,1,0-54.3,33.38v15.85a8.06,8.06,0,0,0,8.06,8.06h17.66a8.06,8.06,0,0,0,8.06-8.06V97.87a37.4,37.4,0,0,0,20.52-33.38Z" fill="none"/>
    </clipPath>
    <radialGradient id="radial-gradient" cx="0.5" cy="0.5" r="0.5" gradientUnits="objectBoundingBox">
      <stop offset="0" stop-color="#213a7a"/>
      <stop offset="0.76" stop-color="#233c7c"/>
      <stop offset="0.92" stop-color="#263f7f"/>
      <stop offset="0.94" stop-color="#294484" stop-opacity="0.949"/>
      <stop offset="0.95" stop-color="#315293" stop-opacity="0.78"/>
      <stop offset="0.97" stop-color="#3f69ad" stop-opacity="0.51"/>
      <stop offset="0.97" stop-color="#406aae" stop-opacity="0.502"/>
      <stop offset="0.98" stop-color="#446db0" stop-opacity="0.49"/>
      <stop offset="0.99" stop-color="#5278b5" stop-opacity="0.451"/>
      <stop offset="0.99" stop-color="#6b8bbf" stop-opacity="0.38"/>
      <stop offset="0.99" stop-color="#8ea6cd" stop-opacity="0.29"/>
      <stop offset="1" stop-color="#bcc9df" stop-opacity="0.161"/>
      <stop offset="1" stop-color="#f3f4f5" stop-opacity="0.012"/>
      <stop offset="1" stop-color="#f6f6f6" stop-opacity="0"/>
    </radialGradient>
  </defs>
  <g id="OBJECTS" transform="translate(0 0.04)">
    <path id="Path_932" data-name="Path 932" d="M333.35,144.77h0a8.77,8.77,0,0,1-8.77-8.77v-.84h17.54V136a8.77,8.77,0,0,1-8.77,8.77Z" fill="#104478"/>
    <path id="Path_933" data-name="Path 933" d="M321,117.36h24.68v16.47a3.53,3.53,0,0,1-3.53,3.53H324.54a3.53,3.53,0,0,1-3.53-3.53V117.36Z" fill="#2b5d8f"/>
    <path id="Path_934" data-name="Path 934" d="M347.12,126.84H319.58a1.3,1.3,0,0,1-1.3-1.3h0a1.3,1.3,0,0,1,1.3-1.3h27.54a1.3,1.3,0,0,1,1.3,1.3h0A1.3,1.3,0,0,1,347.12,126.84Z" fill="#104478"/>
    <path id="Path_935" data-name="Path 935" d="M347.12,132.15H319.58a1.3,1.3,0,0,1-1.3-1.3h0a1.3,1.3,0,0,1,1.3-1.3h27.54a1.3,1.3,0,0,1,1.3,1.3h0A1.3,1.3,0,0,1,347.12,132.15Z" fill="#104478"/>
    <path id="Path_936" data-name="Path 936" d="M370.76,64.49a37.41,37.41,0,1,0-54.3,33.38v15.85a8.06,8.06,0,0,0,8.06,8.06h17.66a8.06,8.06,0,0,0,8.06-8.06V97.87a37.4,37.4,0,0,0,20.52-33.38Z" fill="#fcdfd7"/>
    <g id="Group_61" data-name="Group 61" clip-path="url(#clip-path)">
      <path id="Path_937" data-name="Path 937" d="M324,122.43V80.28A1.75,1.75,0,0,1,327,79h0l3,3,2.06-1.9a1.75,1.75,0,0,1,2.37,0l2.06,1.9,3-3h0a1.75,1.75,0,0,1,3,1.24v42.15" fill="none" stroke="#0069aa" stroke-linecap="round" stroke-linejoin="round" stroke-width="2.1"/>
    </g>
    <line id="Line_47" data-name="Line 47" y1="13.19" transform="translate(333.35 6.72)" fill="#e7effe" stroke="#0069aa" stroke-linecap="round" stroke-linejoin="round" stroke-width="2.1"/>
    <line id="Line_48" data-name="Line 48" x1="9.33" y1="9.33" transform="translate(315.28 11.23)" fill="#e7effe" stroke="#0069aa" stroke-linecap="round" stroke-linejoin="round" stroke-width="2.1"/>
    <line id="Line_49" data-name="Line 49" y1="9.33" x2="9.33" transform="translate(342.09 11.23)" fill="#e7effe" stroke="#0069aa" stroke-linecap="round" stroke-linejoin="round" stroke-width="2.1"/>
    <line id="Line_50" data-name="Line 50" x1="13.19" transform="translate(272.78 66.95)" fill="#e7effe" stroke="#0069aa" stroke-linecap="round" stroke-linejoin="round" stroke-width="2.1"/>
    <line id="Line_51" data-name="Line 51" x1="9.32" y2="9.32" transform="translate(277.3 75.69)" fill="#e7effe" stroke="#0069aa" stroke-linecap="round" stroke-linejoin="round" stroke-width="2.1"/>
    <line id="Line_52" data-name="Line 52" x1="9.32" y1="9.33" transform="translate(277.3 48.88)" fill="#e7effe" stroke="#0069aa" stroke-linecap="round" stroke-linejoin="round" stroke-width="2.1"/>
    <line id="Line_53" data-name="Line 53" x2="13.18" transform="translate(380.73 66.95)" fill="#e7effe" stroke="#0069aa" stroke-linecap="round" stroke-linejoin="round" stroke-width="2.1"/>
    <line id="Line_54" data-name="Line 54" y1="9.33" x2="9.32" transform="translate(380.08 48.88)" fill="#e7effe" stroke="#0069aa" stroke-linecap="round" stroke-linejoin="round" stroke-width="2.1"/>
    <line id="Line_55" data-name="Line 55" x2="9.32" y2="9.32" transform="translate(380.08 75.69)" fill="#e7effe" stroke="#0069aa" stroke-linecap="round" stroke-linejoin="round" stroke-width="2.1"/>
    <path id="Path_939" data-name="Path 939" d="M124.51,155.05s40.93,21.08,72.63-3,22.44-45.28,11.28-53-26,7-14.17,25,70.51,35.66,116.22-21.12" fill="none" stroke="#f47952" stroke-linecap="round" stroke-linejoin="round" stroke-width="2.1" stroke-dasharray="9.36"/>
    <path id="Path_940" data-name="Path 940" d="M465.41,80q-.17,1.5-.38,3a83.062,83.062,0,0,1-3.24,14.19c-6.32,19.19-20.61,33.62-50.56,35.48a107.49,107.49,0,0,1-18.77-.57,181.465,181.465,0,0,1-18.4-3.16" fill="none" stroke="#f47952" stroke-linecap="round" stroke-linejoin="round" stroke-width="2.1" stroke-dasharray="9.36"/>
    <path id="Path_941" data-name="Path 941" d="M518.46,66.77c-33.89,5.53-61.14,5.44-80.94,0s-32.16-16.31-36.28-32.28S412,7.74,428.4,6.2C464.56,4,466.18,52,466.27,61.64" fill="none" stroke="#f47952" stroke-linecap="round" stroke-linejoin="round" stroke-width="2.1" stroke-dasharray="9.36"/>
    <path id="Path_942" data-name="Path 942" d="M586.25,24.31l-1.78-6.36-6.53,9v3.74l-19,23.66-.31-.17a4.46,4.46,0,1,0,1.64,1.56l-.17-.28,21.14-22.09,3.47-.45,8-7.62Z" fill="#f47952"/>
    <path id="Path_943" data-name="Path 943" d="M573.62,42.5a22.24,22.24,0,1,1-3.67-3.25L574.16,34a29,29,0,1,0,4.11,3.64Z" fill="#2b5d8f"/>
    <path id="Path_944" data-name="Path 944" d="M565.7,50.77a10.83,10.83,0,1,1-2.91-2.61L567,42.88a17.67,17.67,0,1,0,3.35,3Z" fill="#2b5d8f"/>
    <path id="Path_945" data-name="Path 945" d="M114.8,107A20.82,20.82,0,0,0,94,87.35h0a20.84,20.84,0,0,0-20.84,20.84v3.66l-7.78,7.78,7.78,7.78v3a20.83,20.83,0,0,0,12.26,19v4.81h29.42V107Z" fill="#2b5d8f"/>
    <circle id="Ellipse_112" data-name="Ellipse 112" cx="17.06" cy="17.06" r="17.06" transform="translate(77.06 93.71)" fill="#fcdfd7"/>
    <path id="Path_946" data-name="Path 946" d="M100.45,108.58H95.94v-4.51a2.14,2.14,0,1,0-4.27,0v4.51H87.16a2.14,2.14,0,0,0,0,4.27h4.51v4.51a2.14,2.14,0,0,0,4.27,0v-4.51h4.51a2.14,2.14,0,1,0,0-4.27Z" fill="#f47952"/>
    <path id="Path_947" data-name="Path 947" d="M148.39,200.78a1,1,0,0,1-1,1h-5.2a1.04,1.04,0,0,1,0-2.08h5.2a1,1,0,0,1,1,1.08Zm-10.4,0a1,1,0,0,1-1,1h-5.2a1.04,1.04,0,1,1,0-2.08h5.2a1,1,0,0,1,1.01,1.08Zm-10.4,0a1,1,0,0,1-1,1h-3a1.04,1.04,0,0,1,0-2.08h3a1,1,0,0,1,1,1.08Z" fill="#2b5d8f"/>
    <path id="Path_948" data-name="Path 948" d="M656.43,259.82a1,1,0,0,1-1,1h-5.2a1.04,1.04,0,1,1,0-2.08h5.2a1,1,0,0,1,1,1.08Zm-10.4,0a1,1,0,0,1-1,1h-5.2a1.04,1.04,0,1,1,0-2.08H645a1,1,0,0,1,1,1.08Zm-10.4,0a1,1,0,0,1-1,1h-3a1.04,1.04,0,1,1,0-2.08h3a1,1,0,0,1,1,1.08Z" fill="#2b5d8f"/>
    <path id="Path_949" data-name="Path 949" d="M439.19,30.89a4.2,4.2,0,1,1-4.2-4.2,4.2,4.2,0,0,1,4.2,4.2Zm-2.08,0A2.12,2.12,0,1,0,435,33a2.12,2.12,0,0,0,2.11-2.11Z" fill="#2b5d8f"/>
    <path id="Path_950" data-name="Path 950" d="M134.33,22H110.55a1.04,1.04,0,1,0,0,2.08h23.78a1.04,1.04,0,0,0,0-2.08Z" fill="#2b5d8f"/>
    <path id="Path_951" data-name="Path 951" d="M103,22H98.33a1.04,1.04,0,1,0,0,2.08H103A1.04,1.04,0,1,0,103,22Z" fill="#2b5d8f"/>
    <path id="Path_952" data-name="Path 952" d="M123.16,30.24a1,1,0,0,1-1,1h-3a1.04,1.04,0,1,1,0-2.08h3a1,1,0,0,1,1,1.08Zm-8.18,0a1,1,0,0,1-1,1h-5.2a1.04,1.04,0,1,1,0-2.08h5.2A1,1,0,0,1,115,30.24Zm-10.4,0a1,1,0,0,1-1,1h-5.2a1.04,1.04,0,1,1,0-2.08h5.2a1,1,0,0,1,1,1.08Z" fill="#2b5d8f"/>
    <path id="Path_953" data-name="Path 953" d="M497.31,110.32a1,1,0,0,0-1,1v2.41a1.04,1.04,0,0,0,2.08,0v-2.41a1,1,0,0,0-1.08-1Z" fill="#2b5d8f"/>
    <path id="Path_954" data-name="Path 954" d="M494.58,107.9h-2.41a1.04,1.04,0,1,0,0,2.08h2.41a1.04,1.04,0,1,0,0-2.08Z" fill="#2b5d8f"/>
    <path id="Path_955" data-name="Path 955" d="M497.31,102.9a1,1,0,0,0-1,1v2.41a1.04,1.04,0,0,0,2.08,0V103.9a1,1,0,0,0-1.08-1Z" fill="#2b5d8f"/>
    <path id="Path_956" data-name="Path 956" d="M502.44,107.74H500a1.04,1.04,0,1,0,0,2.08h2.41a1.04,1.04,0,1,0,0-2.08Z" fill="#2b5d8f"/>
    <circle id="Ellipse_113" data-name="Ellipse 113" cx="3.67" cy="3.67" r="3.67" transform="translate(148.32 106.78)" fill="#2b5d8f"/>
    <path id="Path_957" data-name="Path 957" d="M586.78,109h23.78a1.04,1.04,0,0,0,0-2.08H586.78a1.04,1.04,0,0,0,0,2.08Z" fill="#2b5d8f"/>
    <path id="Path_958" data-name="Path 958" d="M618.13,109h4.65a1.04,1.04,0,0,0,0-2.08h-4.65a1.04,1.04,0,0,0,0,2.08Z" fill="#2b5d8f"/>
    <path id="Path_959" data-name="Path 959" d="M597.95,100.74a1,1,0,0,1,1-1h3a1.04,1.04,0,0,1,0,2.08h-3a1,1,0,0,1-1-1.08Zm8.18,0a1,1,0,0,1,1-1h5.2a1.04,1.04,0,0,1,0,2.08h-5.2a1,1,0,0,1-1-1.08Zm10.4,0a1,1,0,0,1,1-1h5.2a1.04,1.04,0,0,1,0,2.08h-5.2a1,1,0,0,1-1-1.08Z" fill="#2b5d8f"/>
    <path id="Path_960" data-name="Path 960" d="M523.86,4.49a1,1,0,0,0,1-1V1a1.04,1.04,0,0,0-2.08,0V3.45a1,1,0,0,0,1.08,1.04Z" fill="#2b5d8f"/>
    <path id="Path_961" data-name="Path 961" d="M526.58,6.91H529a1.04,1.04,0,0,0,0-2.08h-2.41a1.04,1.04,0,0,0,0,2.08Z" fill="#2b5d8f"/>
    <path id="Path_962" data-name="Path 962" d="M523.86,11.91a1,1,0,0,0,1-1V8.46a1.04,1.04,0,0,0-2.08,0v2.41a1,1,0,0,0,1.08,1.04Z" fill="#2b5d8f"/>
    <path id="Path_963" data-name="Path 963" d="M518.72,7.08h2.41a1.04,1.04,0,0,0,0-2.08h-2.41a1.04,1.04,0,0,0,0,2.08Z" fill="#2b5d8f"/>
    <path id="Path_964" data-name="Path 964" d="M65.71,229.69H41.93a1.04,1.04,0,1,0,0,2.08H65.71a1.04,1.04,0,1,0,0-2.08Z" fill="#2b5d8f"/>
    <path id="Path_965" data-name="Path 965" d="M34.36,229.68H29.72a1.04,1.04,0,1,0,0,2.08h4.65a1.04,1.04,0,1,0,0-2.08Z" fill="#2b5d8f"/>
    <path id="Path_966" data-name="Path 966" d="M54.54,238a1,1,0,0,1-1,1h-3a1.04,1.04,0,0,1,0-2.08h3a1,1,0,0,1,1,1.08Zm-8.18,0a1,1,0,0,1-1,1h-5.2a1.04,1.04,0,0,1,0-2.08h5.2a1,1,0,0,1,1,1.08ZM36,238a1,1,0,0,1-1,1H29.8a1.04,1.04,0,0,1,0-2.08H35A1,1,0,0,1,36,238Z" fill="#2b5d8f"/>
    <path id="Path_967" data-name="Path 967" d="M115.27,276.28a1,1,0,0,0-1,1v2.41a1.04,1.04,0,1,0,2.08,0v-2.41a1,1,0,0,0-1.08-1Z" fill="#2b5d8f"/>
    <path id="Path_968" data-name="Path 968" d="M112.54,273.86h-2.41a1.04,1.04,0,0,0,0,2.08h2.41a1.04,1.04,0,1,0,0-2.08Z" fill="#2b5d8f"/>
    <path id="Path_969" data-name="Path 969" d="M115.27,268.86a1,1,0,0,0-1,1v2.41a1.04,1.04,0,0,0,2.08,0V269.9a1,1,0,0,0-1.08-1.04Z" fill="#2b5d8f"/>
    <path id="Path_970" data-name="Path 970" d="M120.4,273.7H118a1.04,1.04,0,0,0,0,2.08h2.41a1.04,1.04,0,1,0,0-2.08Z" fill="#2b5d8f"/>
    <path id="Path_971" data-name="Path 971" d="M535.43,223.86s.81,5.79-5.95,5.65c0,0,5.81.06,5.65,5.49,0,0,.52-4.27,5.85-5.22C541,229.78,536.49,230.81,535.43,223.86Z" fill="#2b5d8f"/>
    <path id="Path_972" data-name="Path 972" d="M250.51,1.49s.81,5.79-5.95,5.65c0,0,5.81.06,5.65,5.49,0,0,.52-4.27,5.85-5.22C256.07,7.41,251.56,8.44,250.51,1.49Z" fill="#2b5d8f"/>
    <path id="Path_973" data-name="Path 973" d="M3.63,182.78s.49,3.53-3.63,3.45c0,0,3.55,0,3.45,3.35A4,4,0,0,1,7,186.39S4.27,187,3.63,182.78Z" fill="#2b5d8f"/>
    <path id="Path_974" data-name="Path 974" d="M418.17,94s.49,3.53-3.63,3.45c0,0,3.55,0,3.45,3.35a4,4,0,0,1,3.57-3.19S418.81,98.22,418.17,94Z" fill="#2b5d8f"/>
    <path id="Path_975" data-name="Path 975" d="M560,160.45H537a5.36,5.36,0,0,1-.17-10.71A8.29,8.29,0,0,1,552,145.35a6,6,0,0,1,6.68,4.38H560a5.36,5.36,0,1,1,0,10.71Zm-23-9.13a3.77,3.77,0,1,0,0,7.54h23a3.77,3.77,0,1,0,0-7.54h-2.67l-.11-.67a4.43,4.43,0,0,0-5.47-3.65l-.58.14-.29-.52a6.71,6.71,0,0,0-12.57,3.26c0,.2,0,.39,0,.58l.07.86Z" fill="#2b5d8f"/>
    <path id="Path_976" data-name="Path 976" d="M219.22,50.76h-23.1A5.36,5.36,0,0,1,196,40.05a8.29,8.29,0,0,1,15.23-4.39A6,6,0,0,1,217.87,40h1.35a5.36,5.36,0,1,1,0,10.71Zm-23.09-9.13a3.77,3.77,0,1,0,0,7.54h23.09a3.77,3.77,0,1,0,0-7.54h-2.67l-.11-.67A4.43,4.43,0,0,0,211,37.32l-.58.14-.29-.52a6.71,6.71,0,0,0-12.57,3.26v.58l.07.86Z" fill="#2b5d8f"/>
    <path id="Path_977" data-name="Path 977" d="M643,50.91H619.9a5.36,5.36,0,0,1-.17-10.71A8.29,8.29,0,0,1,635,35.81a6,6,0,0,1,6.68,4.38H643a5.36,5.36,0,1,1,0,10.71Zm-23.1-9.13a3.77,3.77,0,1,0,0,7.54H643a3.77,3.77,0,1,0,0-7.54h-2.67l-.11-.67a4.43,4.43,0,0,0-5.47-3.65l-.58.14-.29-.52a6.71,6.71,0,0,0-12.57,3.26v.58l.07.86Z" fill="#2b5d8f"/>
    <path id="Path_978" data-name="Path 978" d="M54.71,54.13H52.39V51.81a1.1,1.1,0,1,0-2.2,0v2.32H47.87a1.1,1.1,0,1,0,0,2.2h2.32v2.32a1.1,1.1,0,0,0,2.2,0V56.33h2.32a1.1,1.1,0,0,0,0-2.2Z" fill="#2b5d8f"/>
    <path id="Path_979" data-name="Path 979" d="M615,191h-2.32v-2.3a1.1,1.1,0,1,0-2.2,0V191h-2.32a1.1,1.1,0,0,0,0,2.2h2.32v2.32a1.1,1.1,0,1,0,2.2,0V193.2H615a1.1,1.1,0,0,0,0-2.2Z" fill="#2b5d8f"/>
    <path id="Path_980" data-name="Path 980" d="M458.62,146.7H456.3v-2.32a1.1,1.1,0,0,0-2.2,0v2.32h-2.32a1.1,1.1,0,1,0,0,2.2h2.32v2.32a1.1,1.1,0,1,0,2.2,0V148.9h2.32a1.1,1.1,0,1,0,0-2.2Z" fill="#2b5d8f"/>
    <path id="Path_981" data-name="Path 981" d="M50.25,398.5c20.671-.307,41.342-.438,62.021-.657l62.021-.377c20.671-.166,41.342-.131,62.021-.193l62.021-.123,62.021.123c20.671.061,41.342,0,62.021.193l62.021.377c20.671.228,41.342.359,62.021.666-20.671.307-41.342.438-62.021.666l-62.021.377c-20.671.166-41.342.123-62.021.193l-62.021.123-62.021-.123c-20.671-.061-41.342,0-62.021-.193l-62.021-.377C91.6,398.937,70.921,398.77,50.25,398.5Z" transform="translate(35.155 -13.685)" fill="#104478"/>
    <rect id="Rectangle_100" data-name="Rectangle 100" width="284.311" height="182.919" rx="8.72" transform="translate(191.326 187.6)" fill="#104478"/>
    <circle id="Ellipse_114" data-name="Ellipse 114" cx="1.944" cy="1.944" r="1.944" transform="translate(344.552 192.514)" fill="#2b5d8f"/>
    <circle id="Ellipse_115" data-name="Ellipse 115" cx="1.944" cy="1.944" r="1.944" transform="translate(318.512 192.514)" fill="#2b5d8f"/>
    <path id="Path_982" data-name="Path 982" d="M338.174,182.277H326.849a1.069,1.069,0,0,1-1.069-1.069h0a1.069,1.069,0,0,1,1.069-1.069h11.3a1.069,1.069,0,0,1,1.069,1.069h0A1.069,1.069,0,0,1,338.174,182.277Z" transform="translate(0.957 13.25)" fill="#2b5d8f"/>
    <path id="Path_983" data-name="Path 983" d="M180.535,382.6H157.92a4.073,4.073,0,0,1,4.073-4.073h14.47a4.073,4.073,0,0,1,4.073,4.073Z" transform="translate(21.791 -11.374)" fill="#2b5d8f"/>
    <path id="Path_984" data-name="Path 984" d="M213.065,382.6H190.45a4.073,4.073,0,0,1,4.073-4.073h14.47A4.073,4.073,0,0,1,213.065,382.6Z" transform="translate(17.754 -11.374)" fill="#2b5d8f"/>
    <path id="Path_985" data-name="Path 985" d="M245.6,382.6H223a4.073,4.073,0,0,1,4.073-4.073h14.47a4.073,4.073,0,0,1,4.073,4.073Z" transform="translate(13.714 -11.374)" fill="#2b5d8f"/>
    <path id="Path_986" data-name="Path 986" d="M278.125,382.6H255.51a4.073,4.073,0,0,1,4.073-4.073h14.47a4.073,4.073,0,0,1,4.073,4.073Z" transform="translate(9.679 -11.374)" fill="#2b5d8f"/>
    <path id="Path_987" data-name="Path 987" d="M310.642,382.6H288a4.073,4.073,0,0,1,4.073-4.073h14.47a4.073,4.073,0,0,1,4.073,4.073Z" transform="translate(5.646 -11.374)" fill="#2b5d8f"/>
    <path id="Path_988" data-name="Path 988" d="M343.177,382.6H320.57a4.073,4.073,0,0,1,4.073-4.073h14.47a4.073,4.073,0,0,1,4.073,4.073Z" transform="translate(1.604 -11.374)" fill="#2b5d8f"/>
    <path id="Path_989" data-name="Path 989" d="M375.707,382.6H353.1a4.073,4.073,0,0,1,4.073-4.073h14.47a4.073,4.073,0,0,1,4.073,4.073Z" transform="translate(-2.434 -11.374)" fill="#2b5d8f"/>
    <path id="Path_990" data-name="Path 990" d="M408.235,382.6H385.62a4.073,4.073,0,0,1,4.073-4.073h14.47a4.073,4.073,0,0,1,4.073,4.073Z" transform="translate(-6.47 -11.374)" fill="#2b5d8f"/>
    <path id="Path_991" data-name="Path 991" d="M440.792,382.6H418.15a4.073,4.073,0,0,1,4.073-4.073h14.47a4.073,4.073,0,0,1,4.073,4.073Z" transform="translate(-10.508 -11.374)" fill="#2b5d8f"/>
    <path id="Path_992" data-name="Path 992" d="M473.3,382.6H450.68a4.073,4.073,0,0,1,4.073-4.073h14.47A4.073,4.073,0,0,1,473.3,382.6Z" transform="translate(-14.545 -11.374)" fill="#2b5d8f"/>
    <path id="Path_993" data-name="Path 993" d="M505.8,382.6H483.21a4.073,4.073,0,0,1,4.073-4.073h14.47a4.073,4.073,0,0,1,4.073,4.073Z" transform="translate(-18.583 -11.374)" fill="#2b5d8f"/>
    <path id="Path_994" data-name="Path 994" d="M152.4,396.52H465.8a15.31,15.31,0,0,0,15.31-15.31H137.08A15.31,15.31,0,0,0,152.4,396.52Z" transform="translate(24.378 -11.707)" fill="#2b5d8f"/>
    <rect id="Rectangle_101" data-name="Rectangle 101" width="344.029" height="6.122" transform="translate(161.458 369.503)" fill="#104478"/>
    <rect id="Rectangle_102" data-name="Rectangle 102" width="256.239" height="156.38" rx="2.04" transform="translate(205 200.96)" fill="#f9f9e5"/>
    <g id="Layer_1" data-name="Layer 1" transform="translate(284.76 230.72)">
      <circle id="Ellipse_111" data-name="Ellipse 111" cx="48.684" cy="48.684" r="48.684" fill="url(#radial-gradient)"/>
      <g id="aldr_tech" data-name="aldr tech" transform="translate(12.219 24.35)">
        <path id="Path_885" data-name="Path 885" d="M165.867,166.817h-1.822v6.153H162.62v-6.153h-1.81V165.59h5.057Z" transform="translate(-110.568 -125.622)" fill="#fff"/>
        <path id="Path_886" data-name="Path 886" d="M179.97,172.99h-4.09v-7.31h3.935v1.177h-2.529v1.771h2.385v1.15h-2.385v2.035h2.684Z" transform="translate(-119.784 -125.677)" fill="#fff"/>
        <path id="Path_887" data-name="Path 887" d="M195.21,172.813a3.714,3.714,0,0,1-1.577.268,3.154,3.154,0,0,1-2.47-.99,3.717,3.717,0,0,1-.862-2.583,3.764,3.764,0,0,1,1.037-2.812,3.356,3.356,0,0,1,2.459-.944,3.146,3.146,0,0,1,1.48.272L195,167.13a2.855,2.855,0,0,0-1.142-.229,1.942,1.942,0,0,0-1.5.621,3.255,3.255,0,0,0-.047,3.76,1.942,1.942,0,0,0,1.554.633,2.963,2.963,0,0,0,1.165-.2Z" transform="translate(-128.6 -125.717)" fill="#fff"/>
        <path id="Path_888" data-name="Path 888" d="M210.779,173.025h-1.418v-3.162h-2.5v3.162h-1.41V165.68h1.41v2.933h2.5V165.68h1.418Z" transform="translate(-137.869 -125.677)" fill="#fff"/>
        <path id="Path_889" data-name="Path 889" d="M167.262,87.51A23.164,23.164,0,0,0,162.6,73.868a21.621,21.621,0,0,0-9.94-7.586l-1.3-.513.113,46.276h1.9l-.1-43.448a20.027,20.027,0,0,1,7.854,6.448,21.281,21.281,0,0,1,4.214,11.517l-9.2.062L161.8,94.7a2.19,2.19,0,0,0-.186.893,2.35,2.35,0,1,0,2.35-2.28,2.393,2.393,0,0,0-.738.117L159.765,88.5l7.493-.05Zm-3.3,6.755a1.332,1.332,0,1,1-1.4,1.328,1.367,1.367,0,0,1,1.4-1.328" transform="translate(-104.788 -64.573)" fill="#fff"/>
        <path id="Path_890" data-name="Path 890" d="M130,118.81a2.354,2.354,0,1,0,2.35-2.28,2.354,2.354,0,0,0-2.35,2.28m2.35-1.328a1.332,1.332,0,1,1-1.4,1.328,1.367,1.367,0,0,1,1.4-1.328" transform="translate(-91.723 -95.617)" fill="#fff"/>
        <path id="Path_891" data-name="Path 891" d="M79.58,100.817a19.844,19.844,0,0,0,14.76,7.726v-.128a2.33,2.33,0,0,0,2.233,1.554,2.28,2.28,0,1,0,0-4.556,2.362,2.362,0,0,0-2.125,1.309v-.089c-11.8-.754-17.98-10.988-17.98-20.71a21.048,21.048,0,0,1,6.312-15.109A21.93,21.93,0,0,1,98.671,64.6l.027-1.9a23.829,23.829,0,0,0-17.25,6.758A22.917,22.917,0,0,0,74.57,85.917a24.6,24.6,0,0,0,4.98,14.88m17.017,5.558a1.332,1.332,0,1,1-1.4,1.332,1.371,1.371,0,0,1,1.4-1.332" transform="translate(-57.824 -62.69)" fill="#fff"/>
        <path id="Path_892" data-name="Path 892" d="M53.832,111.787c-.2-.175-.388-.357-.637-.544a29.353,29.353,0,0,1-2.408-44.128L49.458,65.76h-.194c-4.8.388-9.225,3.08-13.136,8.005a24.328,24.328,0,0,0-4.661,14.08h0a40.336,40.336,0,0,0,5.263,20.248,2.222,2.222,0,0,0-.493,1.391,2.354,2.354,0,1,0,2.35-2.28h-.175A39.033,39.033,0,0,1,33.362,88.6h6.677a30.743,30.743,0,0,0,11.136,23.414h2.944l-.291-.252m-15.222-3.57a1.332,1.332,0,1,1-1.4,1.328,1.367,1.367,0,0,1,1.4-1.328M33.421,86.727a22.508,22.508,0,0,1,4.191-11.761c2.991-3.764,6.265-6.09,9.753-6.953a30.607,30.607,0,0,0-7.3,18.718Z" transform="translate(-31.458 -64.567)" fill="#fff"/>
        <path id="Path_893" data-name="Path 893" d="M112.765,113.057H112.6a10.314,10.314,0,0,1-1.045-.14l-.113-.019a11.33,11.33,0,0,1-.326-22.2h.051a20.326,20.326,0,0,1,3.154-.326h.144V88.54h-.944a13.218,13.218,0,1,0,.031,26.436h.944v-1.763h-.14c-.5-.039-1.041-.089-1.585-.148" transform="translate(-73.573 -78.499)" fill="#fff"/>
        <path id="Path_894" data-name="Path 894" d="M123.78,116.76l-.831-.078-.427-.023-.155-.027h-.085a5.644,5.644,0,0,1-.163-11.058h.058a10.487,10.487,0,0,1,1.573-.155h.431V103.74h-.87a7.38,7.38,0,1,0,0,14.76h.87v-1.643Z" transform="translate(-83.12 -87.795)" fill="#fff"/>
      </g>
    </g>
  </g>
</svg>
